<svg width="31" height="35" viewBox="0 0 31 35" fill="none" xmlns="http://www.w3.org/2000/svg">
<path fill-rule="evenodd" clip-rule="evenodd" d="M0.1875 17.5C0.1875 17.2099 0.302734 16.9317 0.507852 16.7266C0.71297 16.5215 0.991169 16.4062 1.28125 16.4062H29.7188C30.0088 16.4062 30.287 16.5215 30.4921 16.7266C30.6973 16.9317 30.8125 17.2099 30.8125 17.5C30.8125 17.7901 30.6973 18.0683 30.4921 18.2734C30.287 18.4785 30.0088 18.5938 29.7188 18.5938H1.28125C0.991169 18.5938 0.71297 18.4785 0.507852 18.2734C0.302734 18.0683 0.1875 17.7901 0.1875 17.5V17.5ZM15.5 0C15.7901 0 16.0683 0.115234 16.2734 0.320352C16.4785 0.52547 16.5938 0.803669 16.5938 1.09375V9.39094L19.1006 6.88187C19.306 6.6765 19.5846 6.56112 19.875 6.56112C20.1654 6.56112 20.444 6.6765 20.6494 6.88187C20.8548 7.08725 20.9701 7.3658 20.9701 7.65625C20.9701 7.9467 20.8548 8.22525 20.6494 8.43063L16.2744 12.8056C16.1728 12.9075 16.0521 12.9883 15.9192 13.0434C15.7863 13.0986 15.6439 13.127 15.5 13.127C15.3561 13.127 15.2137 13.0986 15.0808 13.0434C14.9479 12.9883 14.8272 12.9075 14.7256 12.8056L10.3506 8.43063C10.1452 8.22525 10.0299 7.9467 10.0299 7.65625C10.0299 7.3658 10.1452 7.08725 10.3506 6.88187C10.556 6.6765 10.8346 6.56112 11.125 6.56112C11.4154 6.56112 11.694 6.6765 11.8994 6.88187L14.4062 9.39094V1.09375C14.4062 0.803669 14.5215 0.52547 14.7266 0.320352C14.9317 0.115234 15.2099 0 15.5 0V0ZM14.4062 25.6091L11.8994 28.1181C11.694 28.3235 11.4154 28.4389 11.125 28.4389C10.8346 28.4389 10.556 28.3235 10.3506 28.1181C10.1452 27.9127 10.0299 27.6342 10.0299 27.3438C10.0299 27.0533 10.1452 26.7748 10.3506 26.5694L14.7256 22.1944C14.8272 22.0925 14.9479 22.0117 15.0808 21.9566C15.2137 21.9014 15.3561 21.873 15.5 21.873C15.6439 21.873 15.7863 21.9014 15.9192 21.9566C16.0521 22.0117 16.1728 22.0925 16.2744 22.1944L20.6494 26.5694C20.8548 26.7748 20.9701 27.0533 20.9701 27.3438C20.9701 27.6342 20.8548 27.9127 20.6494 28.1181C20.444 28.3235 20.1654 28.4389 19.875 28.4389C19.5846 28.4389 19.306 28.3235 19.1006 28.1181L16.5938 25.6091V33.9062C16.5938 34.1963 16.4785 34.4745 16.2734 34.6796C16.0683 34.8848 15.7901 35 15.5 35C15.2099 35 14.9317 34.8848 14.7266 34.6796C14.5215 34.4745 14.4062 34.1963 14.4062 33.9062V25.6091Z" fill="#4F7752"/>
</svg>
