<svg width="31" height="36" viewBox="0 0 31 36" fill="none" xmlns="http://www.w3.org/2000/svg">
<path fill-rule="evenodd" clip-rule="evenodd" d="M0 17.502C0 17.2119 0.115234 16.9337 0.320352 16.7286C0.52547 16.5234 0.803669 16.4082 1.09375 16.4082H29.5312C29.8213 16.4082 30.0995 16.5234 30.3046 16.7286C30.5098 16.9337 30.625 17.2119 30.625 17.502C30.625 17.792 30.5098 18.0702 30.3046 18.2754C30.0995 18.4805 29.8213 18.5957 29.5312 18.5957H1.09375C0.803669 18.5957 0.52547 18.4805 0.320352 18.2754C0.115234 18.0702 0 17.792 0 17.502V17.502ZM14.5381 0.32133C14.6397 0.219473 14.7604 0.138661 14.8933 0.0835215C15.0262 0.0283824 15.1686 0 15.3125 0C15.4564 0 15.5988 0.0283824 15.7317 0.0835215C15.8646 0.138661 15.9853 0.219473 16.0869 0.32133L20.4619 4.69633C20.5636 4.79802 20.6442 4.91875 20.6993 5.05162C20.7543 5.18448 20.7826 5.32689 20.7826 5.47071C20.7826 5.61452 20.7543 5.75693 20.6993 5.88979C20.6442 6.02266 20.5636 6.14339 20.4619 6.24508C20.3602 6.34677 20.2395 6.42744 20.1066 6.48247C19.9737 6.53751 19.8313 6.56584 19.6875 6.56584C19.5437 6.56584 19.4013 6.53751 19.2684 6.48247C19.1355 6.42744 19.0148 6.34677 18.9131 6.24508L16.4062 3.73602V12.0332C16.4062 12.3233 16.291 12.6015 16.0859 12.8066C15.8808 13.0117 15.6026 13.127 15.3125 13.127C15.0224 13.127 14.7442 13.0117 14.5391 12.8066C14.334 12.6015 14.2188 12.3233 14.2188 12.0332V3.73602L11.7119 6.24508C11.5065 6.45046 11.2279 6.56584 10.9375 6.56584C10.6471 6.56584 10.3685 6.45046 10.1631 6.24508C9.95775 6.0397 9.84237 5.76115 9.84237 5.47071C9.84237 5.18026 9.95775 4.90171 10.1631 4.69633L14.5381 0.32133V0.32133ZM15.3125 21.877C15.6026 21.877 15.8808 21.9922 16.0859 22.1973C16.291 22.4024 16.4062 22.6806 16.4062 22.9707V31.2679L18.9131 28.7588C19.1185 28.5535 19.3971 28.4381 19.6875 28.4381C19.9779 28.4381 20.2565 28.5535 20.4619 28.7588C20.6673 28.9642 20.7826 29.2428 20.7826 29.5332C20.7826 29.8237 20.6673 30.1022 20.4619 30.3076L16.0869 34.6826C15.9853 34.7844 15.8646 34.8652 15.7317 34.9204C15.5988 34.9755 15.4564 35.0039 15.3125 35.0039C15.1686 35.0039 15.0262 34.9755 14.8933 34.9204C14.7604 34.8652 14.6397 34.7844 14.5381 34.6826L10.1631 30.3076C10.0614 30.2059 9.98077 30.0852 9.92573 29.9523C9.87069 29.8194 9.84237 29.677 9.84237 29.5332C9.84237 29.3894 9.87069 29.247 9.92573 29.1141C9.98077 28.9812 10.0614 28.8605 10.1631 28.7588C10.3685 28.5535 10.6471 28.4381 10.9375 28.4381C11.0813 28.4381 11.2237 28.4664 11.3566 28.5214C11.4895 28.5765 11.6102 28.6571 11.7119 28.7588L14.2188 31.2679V22.9707C14.2188 22.6806 14.334 22.4024 14.5391 22.1973C14.7442 21.9922 15.0224 21.877 15.3125 21.877V21.877Z" fill="#4F7752"/>
</svg>
