<svg width="41" height="29" viewBox="0 0 41 29" fill="none" xmlns="http://www.w3.org/2000/svg">
<path d="M38.7812 11.5117H34.0352V6.51953C34.0352 5.7417 33.4067 5.11328 32.6289 5.11328H18.7861L13.6313 0.182617C13.5658 0.121216 13.4795 0.0867078 13.3896 0.0859375H2.21875C1.44092 0.0859375 0.8125 0.714355 0.8125 1.49219V27.5078C0.8125 28.2856 1.44092 28.9141 2.21875 28.9141H32.8926C33.4639 28.9141 33.9824 28.5669 34.1978 28.0352L40.0864 13.4453C40.1523 13.2783 40.1875 13.0981 40.1875 12.918C40.1875 12.1401 39.5591 11.5117 38.7812 11.5117ZM3.97656 3.25H12.2603L17.5161 8.27734H30.8711V11.5117H8.45898C7.8877 11.5117 7.36914 11.8589 7.15381 12.3906L3.97656 20.2656V3.25ZM31.895 25.75H4.9873L9.52685 14.5H36.439L31.895 25.75Z" fill="#4F7752"/>
</svg>
