<svg width="30" height="30" viewBox="0 0 30 30" fill="none" xmlns="http://www.w3.org/2000/svg">
<path d="M10.3589 0H3.46922C1.55631 0 0 1.55631 0 3.46922V10.3589C0 12.2718 1.55631 13.8281 3.46922 13.8281H10.3589C12.2718 13.8281 13.8281 12.2718 13.8281 10.3589V3.46922C13.8281 1.55631 12.2718 0 10.3589 0ZM11.4844 10.3589C11.4844 10.9795 10.9795 11.4844 10.3589 11.4844H3.46922C2.84865 11.4844 2.34375 10.9795 2.34375 10.3589V3.46922C2.34375 2.84865 2.84865 2.34375 3.46922 2.34375H10.3589C10.9795 2.34375 11.4844 2.84865 11.4844 3.46922V10.3589Z" fill="#4F7752"/>
<path d="M26.4844 0H19.6875C17.749 0 16.1719 1.57711 16.1719 3.51562V10.3125C16.1719 12.251 17.749 13.8281 19.6875 13.8281H26.4844C28.4229 13.8281 30 12.251 30 10.3125V3.51562C30 1.57711 28.4229 0 26.4844 0ZM27.6562 10.3125C27.6562 10.9587 27.1305 11.4844 26.4844 11.4844H19.6875C19.0413 11.4844 18.5156 10.9587 18.5156 10.3125V3.51562C18.5156 2.86945 19.0413 2.34375 19.6875 2.34375H26.4844C27.1305 2.34375 27.6562 2.86945 27.6562 3.51562V10.3125Z" fill="#4F7752"/>
<path d="M10.3589 16.1719H3.46922C1.55631 16.1719 0 17.7282 0 19.6411V26.5308C0 28.4437 1.55631 30 3.46922 30H10.3589C12.2718 30 13.8281 28.4437 13.8281 26.5308V19.6411C13.8281 17.7282 12.2718 16.1719 10.3589 16.1719ZM11.4844 26.5308C11.4844 27.1513 10.9795 27.6562 10.3589 27.6562H3.46922C2.84865 27.6562 2.34375 27.1513 2.34375 26.5308V19.6411C2.34375 19.0205 2.84865 18.5156 3.46922 18.5156H10.3589C10.9795 18.5156 11.4844 19.0205 11.4844 19.6411V26.5308Z" fill="#4F7752"/>
<path d="M26.4844 16.1719H19.6875C17.749 16.1719 16.1719 17.749 16.1719 19.6875V26.4844C16.1719 28.4229 17.749 30 19.6875 30H26.4844C28.4229 30 30 28.4229 30 26.4844V19.6875C30 17.749 28.4229 16.1719 26.4844 16.1719ZM27.6562 26.4844C27.6562 27.1305 27.1305 27.6562 26.4844 27.6562H19.6875C19.0413 27.6562 18.5156 27.1305 18.5156 26.4844V19.6875C18.5156 19.0413 19.0413 18.5156 19.6875 18.5156H26.4844C27.1305 18.5156 27.6562 19.0413 27.6562 19.6875V26.4844Z" fill="#4F7752"/>
</svg>
