<svg width="8" height="14" viewBox="0 0 8 14" fill="none" xmlns="http://www.w3.org/2000/svg">
<path d="M4.34032 0.278012C4.26868 0.190902 4.17859 0.120772 4.07656 0.0727023C3.97453 0.0246223 3.8631 -0.000197659 3.75032 1.23413e-05C3.65221 -0.000557659 3.55498 0.0186224 3.46444 0.0564224C3.3739 0.0942224 3.2919 0.149852 3.22332 0.220012L0.220317 3.22801C0.0798666 3.36864 0.000976562 3.55926 0.000976562 3.75801C0.000976562 3.95676 0.0798666 4.14739 0.220317 4.28801C0.289807 4.3578 0.372407 4.41317 0.463357 4.45095C0.554307 4.48873 0.651827 4.50818 0.750317 4.50818C0.848797 4.50818 0.946317 4.48873 1.03727 4.45095C1.12822 4.41317 1.21082 4.3578 1.28032 4.28801L3.00032 2.55701V13.25C3.00032 13.4489 3.07933 13.6397 3.21999 13.7803C3.36064 13.921 3.5514 14 3.75032 14C3.94923 14 4.13999 13.921 4.28065 13.7803C4.4213 13.6397 4.50032 13.4489 4.50032 13.25V2.56601L6.22232 4.28401C6.2918 4.35365 6.37433 4.40889 6.46519 4.44658C6.55605 4.48428 6.65345 4.50368 6.75182 4.50368C6.85018 4.50368 6.94759 4.48428 7.03845 4.44658C7.1293 4.40889 7.21184 4.35365 7.28132 4.28401C7.42177 4.14339 7.50066 3.95276 7.50066 3.75401C7.50066 3.55526 7.42177 3.36464 7.28132 3.22401L4.33932 0.277012L4.34032 0.278012Z" fill="black" fill-opacity="0.3"/>
</svg>
