<svg width="8" height="14" viewBox="0 0 8 14" fill="none" xmlns="http://www.w3.org/2000/svg">
<path d="M3.66064 13.722C3.73224 13.8091 3.82234 13.8792 3.92434 13.9273C4.02634 13.9754 4.13784 14.0002 4.25064 14C4.34874 14.0006 4.44594 13.9814 4.53644 13.9436C4.62704 13.9058 4.70904 13.8501 4.77764 13.78L7.78064 10.772C7.92104 10.6314 7.99994 10.4407 7.99994 10.242C7.99994 10.0432 7.92104 9.85261 7.78064 9.71201C7.71114 9.64221 7.62854 9.58681 7.53754 9.54901C7.44664 9.51131 7.34904 9.49181 7.25064 9.49181C7.15214 9.49181 7.05464 9.51131 6.96364 9.54901C6.87274 9.58681 6.79014 9.64221 6.72064 9.71201L5.00064 11.443V0.75C5.00064 0.55109 4.92154 0.36032 4.78094 0.21967C4.64024 0.0790101 4.44954 0 4.25064 0C4.05164 0 3.86094 0.0790101 3.72024 0.21967C3.57964 0.36032 3.50064 0.55109 3.50064 0.75V11.434L1.77864 9.71601C1.70914 9.64641 1.62654 9.59111 1.53574 9.55341C1.44484 9.51571 1.34744 9.49631 1.24914 9.49631C1.15074 9.49631 1.05334 9.51571 0.962443 9.55341C0.871643 9.59111 0.789044 9.64641 0.719644 9.71601C0.579144 9.85661 0.500244 10.0472 0.500244 10.246C0.500244 10.4447 0.579144 10.6354 0.719644 10.776L3.66164 13.723L3.66064 13.722Z" fill="black" fill-opacity="0.3"/>
</svg>
