<svg width="30" height="30" viewBox="0 0 30 30" fill="none" xmlns="http://www.w3.org/2000/svg">
<circle cx="15" cy="15" r="15" fill="#4F7752"/>
<path d="M10.5 20H19.5C19.69 20.0001 19.873 20.0722 20.0118 20.202C20.1507 20.3317 20.2351 20.5093 20.248 20.6989C20.261 20.8885 20.2015 21.0759 20.0816 21.2233C19.9617 21.3707 19.7903 21.4671 19.602 21.493L19.5 21.5H10.5C10.31 21.4999 10.1271 21.4278 9.98822 21.298C9.84937 21.1683 9.76494 20.9907 9.75199 20.8011C9.73904 20.6115 9.79853 20.4241 9.91845 20.2767C10.0384 20.1293 10.2098 20.0329 10.398 20.007L10.5 20H19.5H10.5ZM14.898 8.007L15 8C15.1813 8.00001 15.3564 8.06564 15.4929 8.18477C15.6295 8.30389 15.7184 8.46845 15.743 8.648L15.75 8.75V16.438L18.005 14.184C18.1322 14.0569 18.3008 13.9797 18.4801 13.9664C18.6595 13.9532 18.8376 14.0049 18.982 14.112L19.066 14.184C19.1931 14.3112 19.2704 14.4798 19.2836 14.6591C19.2968 14.8385 19.2451 15.0166 19.138 15.161L19.066 15.245L15.53 18.78C15.403 18.907 15.2347 18.9842 15.0556 18.9976C14.8765 19.011 14.6985 18.9597 14.554 18.853L14.47 18.78L10.934 15.245C10.7998 15.1112 10.7213 14.9315 10.7141 14.7421C10.707 14.5527 10.7719 14.3677 10.8956 14.2242C11.0194 14.0806 11.1929 13.9893 11.3813 13.9685C11.5696 13.9477 11.7589 13.9989 11.911 14.112L11.995 14.184L14.25 16.44V8.75C14.25 8.56876 14.3157 8.39366 14.4348 8.25707C14.5539 8.12048 14.7185 8.03165 14.898 8.007L15 8L14.898 8.007Z" fill="white"/>
</svg>
