<svg width="30" height="30" viewBox="0 0 30 30" fill="none" xmlns="http://www.w3.org/2000/svg">
<circle cx="15" cy="15" r="15" fill="#4F7752"/>
<path d="M22.7141 14.1351C23.1091 14.6517 23.1091 15.3492 22.7141 15.8651C21.4699 17.4892 18.4849 20.8334 14.9999 20.8334C11.5149 20.8334 8.52993 17.4892 7.28576 15.8651C7.09358 15.6177 6.98926 15.3133 6.98926 15.0001C6.98926 14.6868 7.09358 14.3825 7.28576 14.1351C8.52993 12.5109 11.5149 9.16675 14.9999 9.16675C18.4849 9.16675 21.4699 12.5109 22.7141 14.1351V14.1351Z" stroke="white" stroke-width="1.5" stroke-linecap="round" stroke-linejoin="round"/>
<path d="M15 17.5C16.3807 17.5 17.5 16.3807 17.5 15C17.5 13.6193 16.3807 12.5 15 12.5C13.6193 12.5 12.5 13.6193 12.5 15C12.5 16.3807 13.6193 17.5 15 17.5Z" stroke="white" stroke-width="1.5" stroke-linecap="round" stroke-linejoin="round"/>
</svg>
